<mxfile host="app.diagrams.net" modified="2023-07-04T09:03:23.820Z" agent="Mozilla/5.0 (X11; Ubuntu; Linux x86_64; rv:109.0) Gecko/20100101 Firefox/114.0" etag="LhD1cFBcGtjtHxHSaCj-" version="21.5.2" type="device">
  <diagram name="Page-1" id="vxbV-ryBLMip8b9wPBGl">
    <mxGraphModel dx="1434" dy="766" grid="1" gridSize="10" guides="1" tooltips="1" connect="1" arrows="1" fold="1" page="1" pageScale="1" pageWidth="827" pageHeight="1169" math="0" shadow="0">
      <root>
        <mxCell id="0" />
        <mxCell id="1" parent="0" />
        <mxCell id="lym5nS4tbZG2ID6g5kzb-1" value="&lt;font style=&quot;font-size: 22px;&quot;&gt;&lt;font color=&quot;#00c2c2&quot;&gt;https&lt;/font&gt;&lt;font color=&quot;#000000&quot;&gt;://&lt;/font&gt;&lt;font color=&quot;#ff66b3&quot;&gt;www&lt;/font&gt;&lt;font color=&quot;#000000&quot;&gt;.&lt;/font&gt;&lt;font color=&quot;#99ff33&quot;&gt;skilly&lt;/font&gt;&lt;font color=&quot;#000000&quot;&gt;.&lt;/font&gt;&lt;font color=&quot;#007fff&quot;&gt;es&lt;/font&gt;&lt;font color=&quot;#000000&quot;&gt;/&lt;/font&gt;&lt;font color=&quot;#ff33ff&quot;&gt;login.php&lt;/font&gt;&lt;font color=&quot;#ffff00&quot;&gt;?&lt;/font&gt;&lt;font color=&quot;#ff1c1c&quot;&gt;usuario_id&lt;/font&gt;&lt;font color=&quot;#000000&quot;&gt;=&lt;/font&gt;&lt;font color=&quot;#44c987&quot;&gt;066&lt;/font&gt;&lt;font color=&quot;#6600cc&quot;&gt;&amp;amp;&lt;/font&gt;&lt;font color=&quot;#ff1c1c&quot;&gt;usuario_nombre&lt;/font&gt;&lt;font color=&quot;#000000&quot;&gt;=&lt;/font&gt;&lt;font color=&quot;#44c987&quot;&gt;&quot;nurialiano&quot;&lt;/font&gt;&lt;/font&gt;" style="text;html=1;strokeColor=none;fillColor=none;align=center;verticalAlign=middle;whiteSpace=wrap;rounded=0;" vertex="1" parent="1">
          <mxGeometry x="40" y="220" width="770" height="20" as="geometry" />
        </mxCell>
        <mxCell id="lym5nS4tbZG2ID6g5kzb-2" value="variable1" style="text;html=1;strokeColor=#FF1C1C;fillColor=none;align=center;verticalAlign=middle;whiteSpace=wrap;rounded=1;fontColor=#000000;" vertex="1" parent="1">
          <mxGeometry x="370" y="280" width="60" height="30" as="geometry" />
        </mxCell>
        <mxCell id="lym5nS4tbZG2ID6g5kzb-3" value="valor1" style="text;html=1;strokeColor=#44C987;fillColor=none;align=center;verticalAlign=middle;whiteSpace=wrap;rounded=1;fontColor=#000000;" vertex="1" parent="1">
          <mxGeometry x="460" y="280" width="60" height="30" as="geometry" />
        </mxCell>
        <mxCell id="lym5nS4tbZG2ID6g5kzb-4" value="variable2" style="text;html=1;strokeColor=#FF1C1C;fillColor=none;align=center;verticalAlign=middle;whiteSpace=wrap;rounded=1;fontColor=#000000;" vertex="1" parent="1">
          <mxGeometry x="570" y="280" width="60" height="30" as="geometry" />
        </mxCell>
        <mxCell id="lym5nS4tbZG2ID6g5kzb-5" value="valor2" style="text;html=1;strokeColor=#44C987;fillColor=none;align=center;verticalAlign=middle;whiteSpace=wrap;rounded=1;fontColor=#000000;" vertex="1" parent="1">
          <mxGeometry x="730" y="280" width="60" height="30" as="geometry" />
        </mxCell>
        <mxCell id="lym5nS4tbZG2ID6g5kzb-6" value="protocolo" style="text;html=1;strokeColor=#00C2C2;fillColor=none;align=center;verticalAlign=middle;whiteSpace=wrap;rounded=1;fontColor=#000000;" vertex="1" parent="1">
          <mxGeometry x="50" y="280" width="60" height="30" as="geometry" />
        </mxCell>
        <mxCell id="lym5nS4tbZG2ID6g5kzb-7" value="dominio" style="text;html=1;strokeColor=#99FF33;fillColor=none;align=center;verticalAlign=middle;whiteSpace=wrap;rounded=1;fontColor=#000000;" vertex="1" parent="1">
          <mxGeometry x="150" y="280" width="60" height="30" as="geometry" />
        </mxCell>
        <mxCell id="lym5nS4tbZG2ID6g5kzb-8" value="subdominio" style="text;html=1;strokeColor=#FF66B3;fillColor=none;align=center;verticalAlign=middle;whiteSpace=wrap;rounded=1;fontColor=#000000;" vertex="1" parent="1">
          <mxGeometry x="90" y="150" width="60" height="30" as="geometry" />
        </mxCell>
        <mxCell id="lym5nS4tbZG2ID6g5kzb-9" value="extension" style="text;html=1;strokeColor=#007FFF;fillColor=none;align=center;verticalAlign=middle;whiteSpace=wrap;rounded=1;fontColor=#000000;" vertex="1" parent="1">
          <mxGeometry x="190" y="150" width="60" height="30" as="geometry" />
        </mxCell>
        <mxCell id="lym5nS4tbZG2ID6g5kzb-10" value="p치gina web" style="text;html=1;strokeColor=#FF33FF;fillColor=none;align=center;verticalAlign=middle;whiteSpace=wrap;rounded=1;fontColor=#000000;" vertex="1" parent="1">
          <mxGeometry x="260" y="280" width="60" height="30" as="geometry" />
        </mxCell>
        <mxCell id="lym5nS4tbZG2ID6g5kzb-11" value="caracter para establecer par치metros" style="text;html=1;strokeColor=#FFFF00;fillColor=none;align=center;verticalAlign=middle;whiteSpace=wrap;rounded=1;fontColor=#000000;" vertex="1" parent="1">
          <mxGeometry x="300" y="130" width="100" height="50" as="geometry" />
        </mxCell>
        <mxCell id="lym5nS4tbZG2ID6g5kzb-12" value="car치cter de concatenaci칩n" style="text;html=1;strokeColor=#6600CC;fillColor=none;align=center;verticalAlign=middle;whiteSpace=wrap;rounded=1;fontColor=#000000;" vertex="1" parent="1">
          <mxGeometry x="470" y="135" width="100" height="40" as="geometry" />
        </mxCell>
        <mxCell id="lym5nS4tbZG2ID6g5kzb-14" value="" style="endArrow=classic;html=1;rounded=0;fontColor=#00C2C2;strokeColor=#00C2C2;exitX=0.561;exitY=-0.024;exitDx=0;exitDy=0;exitPerimeter=0;" edge="1" parent="1" source="lym5nS4tbZG2ID6g5kzb-6">
          <mxGeometry width="50" height="50" relative="1" as="geometry">
            <mxPoint x="84" y="272" as="sourcePoint" />
            <mxPoint x="84" y="242" as="targetPoint" />
          </mxGeometry>
        </mxCell>
        <mxCell id="lym5nS4tbZG2ID6g5kzb-15" value="" style="endArrow=classic;html=1;rounded=0;fontColor=#00C2C2;strokeColor=#99FF33;exitX=0.664;exitY=-0.04;exitDx=0;exitDy=0;exitPerimeter=0;" edge="1" parent="1" source="lym5nS4tbZG2ID6g5kzb-7">
          <mxGeometry width="50" height="50" relative="1" as="geometry">
            <mxPoint x="189" y="273" as="sourcePoint" />
            <mxPoint x="189" y="243" as="targetPoint" />
          </mxGeometry>
        </mxCell>
        <mxCell id="lym5nS4tbZG2ID6g5kzb-16" value="" style="endArrow=classic;html=1;rounded=0;fontColor=#00C2C2;strokeColor=#FF33FF;exitX=0.553;exitY=0.008;exitDx=0;exitDy=0;exitPerimeter=0;" edge="1" parent="1" source="lym5nS4tbZG2ID6g5kzb-10">
          <mxGeometry width="50" height="50" relative="1" as="geometry">
            <mxPoint x="293" y="273" as="sourcePoint" />
            <mxPoint x="293" y="243" as="targetPoint" />
          </mxGeometry>
        </mxCell>
        <mxCell id="lym5nS4tbZG2ID6g5kzb-17" value="" style="endArrow=classic;html=1;rounded=0;fontColor=#00C2C2;strokeColor=#FF1C1C;exitX=0.5;exitY=0;exitDx=0;exitDy=0;" edge="1" parent="1" source="lym5nS4tbZG2ID6g5kzb-2">
          <mxGeometry width="50" height="50" relative="1" as="geometry">
            <mxPoint x="400" y="273" as="sourcePoint" />
            <mxPoint x="400" y="243" as="targetPoint" />
          </mxGeometry>
        </mxCell>
        <mxCell id="lym5nS4tbZG2ID6g5kzb-18" value="" style="endArrow=classic;html=1;rounded=0;fontColor=#00C2C2;strokeColor=#44C987;exitX=0.5;exitY=0;exitDx=0;exitDy=0;exitPerimeter=0;entryX=0.584;entryY=1.112;entryDx=0;entryDy=0;entryPerimeter=0;" edge="1" parent="1" source="lym5nS4tbZG2ID6g5kzb-3" target="lym5nS4tbZG2ID6g5kzb-1">
          <mxGeometry width="50" height="50" relative="1" as="geometry">
            <mxPoint x="488" y="271" as="sourcePoint" />
            <mxPoint x="488" y="241" as="targetPoint" />
          </mxGeometry>
        </mxCell>
        <mxCell id="lym5nS4tbZG2ID6g5kzb-19" value="" style="endArrow=classic;html=1;rounded=0;fontColor=#00C2C2;strokeColor=#FF1C1C;exitX=0.48;exitY=-0.003;exitDx=0;exitDy=0;exitPerimeter=0;" edge="1" parent="1" source="lym5nS4tbZG2ID6g5kzb-4">
          <mxGeometry width="50" height="50" relative="1" as="geometry">
            <mxPoint x="599" y="273" as="sourcePoint" />
            <mxPoint x="599" y="243" as="targetPoint" />
          </mxGeometry>
        </mxCell>
        <mxCell id="lym5nS4tbZG2ID6g5kzb-20" value="" style="endArrow=classic;html=1;rounded=0;fontColor=#00C2C2;strokeColor=#44C987;exitX=0.461;exitY=-0.015;exitDx=0;exitDy=0;exitPerimeter=0;" edge="1" parent="1" source="lym5nS4tbZG2ID6g5kzb-5">
          <mxGeometry width="50" height="50" relative="1" as="geometry">
            <mxPoint x="758" y="273" as="sourcePoint" />
            <mxPoint x="758" y="243" as="targetPoint" />
          </mxGeometry>
        </mxCell>
        <mxCell id="lym5nS4tbZG2ID6g5kzb-22" value="" style="endArrow=classic;html=1;rounded=0;fontColor=#00C2C2;strokeColor=#FF66B3;entryX=0.584;entryY=1.112;entryDx=0;entryDy=0;entryPerimeter=0;" edge="1" parent="1">
          <mxGeometry width="50" height="50" relative="1" as="geometry">
            <mxPoint x="118" y="181" as="sourcePoint" />
            <mxPoint x="137" y="216" as="targetPoint" />
          </mxGeometry>
        </mxCell>
        <mxCell id="lym5nS4tbZG2ID6g5kzb-23" value="" style="endArrow=classic;html=1;rounded=0;fontColor=#00C2C2;strokeColor=#007FFF;" edge="1" parent="1">
          <mxGeometry width="50" height="50" relative="1" as="geometry">
            <mxPoint x="218" y="180" as="sourcePoint" />
            <mxPoint x="232" y="217" as="targetPoint" />
          </mxGeometry>
        </mxCell>
        <mxCell id="lym5nS4tbZG2ID6g5kzb-24" value="" style="endArrow=classic;html=1;rounded=0;fontColor=#00C2C2;strokeColor=#FFFF00;exitX=0.5;exitY=1;exitDx=0;exitDy=0;" edge="1" parent="1" source="lym5nS4tbZG2ID6g5kzb-11">
          <mxGeometry width="50" height="50" relative="1" as="geometry">
            <mxPoint x="349" y="183" as="sourcePoint" />
            <mxPoint x="347" y="216" as="targetPoint" />
          </mxGeometry>
        </mxCell>
        <mxCell id="lym5nS4tbZG2ID6g5kzb-25" value="" style="endArrow=classic;html=1;rounded=0;fontColor=#00C2C2;strokeColor=#6600CC;exitX=0.5;exitY=1;exitDx=0;exitDy=0;" edge="1" parent="1">
          <mxGeometry width="50" height="50" relative="1" as="geometry">
            <mxPoint x="521.5" y="175" as="sourcePoint" />
            <mxPoint x="513" y="217" as="targetPoint" />
          </mxGeometry>
        </mxCell>
      </root>
    </mxGraphModel>
  </diagram>
</mxfile>
